<svg xmlns="http://www.w3.org/2000/svg" xmlns:xlink="http://www.w3.org/1999/xlink"><symbol id="icon-arrow-down" viewBox="0 0 20 20">
<path d="M10 11.1368L15.8336 5.83334L17.5 7.34829L10 14.1667L2.5 7.34829L4.1664 5.83334L10 11.1368Z" fill="currentColor"/>
</symbol><symbol id="icon-arrow-in-circle" viewBox="0 0 20 20">
<path d="M9.99996 9.16666V6.66666L13.3333 10L9.99996 13.3333V10.8333H6.66663V9.16666H9.99996ZM9.99996 1.66666C14.6 1.66666 18.3333 5.4 18.3333 10C18.3333 14.6 14.6 18.3333 9.99996 18.3333C5.39996 18.3333 1.66663 14.6 1.66663 10C1.66663 5.4 5.39996 1.66666 9.99996 1.66666ZM9.99996 16.6667C13.6833 16.6667 16.6666 13.6833 16.6666 10C16.6666 6.31666 13.6833 3.33333 9.99996 3.33333C6.31663 3.33333 3.33329 6.31666 3.33329 10C3.33329 13.6833 6.31663 16.6667 9.99996 16.6667Z" fill="currentColor"/>
</symbol><symbol id="icon-arrow-up" viewBox="0 0 20 20">
<path d="M10 8.86324L15.8336 14.1667L17.5 12.6517L10 5.83333L2.5 12.6517L4.1664 14.1667L10 8.86324Z" fill="currentColor"/>
</symbol><symbol id="icon-attention" viewBox="0 0 24 24">
<path d="M12 22C6.477 22 2 17.523 2 12C2 6.477 6.477 2 12 2C17.523 2 22 6.477 22 12C22 17.523 17.523 22 12 22ZM12 20C14.1217 20 16.1566 19.1571 17.6569 17.6569C19.1571 16.1566 20 14.1217 20 12C20 9.87827 19.1571 7.84344 17.6569 6.34315C16.1566 4.84285 14.1217 4 12 4C9.87827 4 7.84344 4.84285 6.34315 6.34315C4.84285 7.84344 4 9.87827 4 12C4 14.1217 4.84285 16.1566 6.34315 17.6569C7.84344 19.1571 9.87827 20 12 20V20ZM11 15H13V17H11V15ZM11 7H13V13H11V7Z" fill="currentColor"/>
</symbol><symbol id="icon-back-to-previous" viewBox="0 0 24 24">
<path d="M7.828 11H20V13H7.828L13.192 18.364L11.778 19.778L4 12L11.778 4.222L13.192 5.636L7.828 11Z" fill="#F0884E"/>
</symbol><symbol id="icon-collapse-nav" viewBox="0 0 30 30">
<path d="M13.75 5H16.25V7.5H13.75V5ZM13.75 13.75H16.25V16.25H13.75V13.75ZM13.75 22.5H16.25V25H13.75V22.5Z" fill="currentColor"/>
</symbol><symbol id="icon-counteragents" viewBox="0 0 30 30">
<path d="M2.5 27.5C2.5 24.8478 3.55357 22.3043 5.42893 20.4289C7.3043 18.5536 9.84784 17.5 12.5 17.5C15.1522 17.5 17.6957 18.5536 19.5711 20.4289C21.4464 22.3043 22.5 24.8478 22.5 27.5H20C20 25.5109 19.2098 23.6032 17.8033 22.1967C16.3968 20.7902 14.4891 20 12.5 20C10.5109 20 8.60322 20.7902 7.1967 22.1967C5.79018 23.6032 5 25.5109 5 27.5H2.5ZM12.5 16.25C8.35625 16.25 5 12.8938 5 8.75C5 4.60625 8.35625 1.25 12.5 1.25C16.6438 1.25 20 4.60625 20 8.75C20 12.8938 16.6438 16.25 12.5 16.25ZM12.5 13.75C15.2625 13.75 17.5 11.5125 17.5 8.75C17.5 5.9875 15.2625 3.75 12.5 3.75C9.7375 3.75 7.5 5.9875 7.5 8.75C7.5 11.5125 9.7375 13.75 12.5 13.75ZM22.855 18.3788C24.6117 19.1699 26.1025 20.4516 27.1482 22.0696C28.194 23.6877 28.7502 25.5734 28.75 27.5H26.25C26.2503 26.055 25.8332 24.6406 25.0489 23.427C24.2645 22.2133 23.1463 21.2521 21.8287 20.6588L22.8538 18.3788H22.855ZM21.995 4.26625C23.2544 4.78537 24.3312 5.66692 25.0888 6.79904C25.8463 7.93115 26.2505 9.2628 26.25 10.625C26.2505 12.3404 25.6096 13.994 24.4532 15.261C23.2967 16.528 21.7083 17.3168 20 17.4725V14.9563C20.9262 14.8236 21.7854 14.3975 22.4516 13.7406C23.1178 13.0836 23.5559 12.2304 23.7014 11.3062C23.847 10.3819 23.6925 9.43537 23.2605 8.60544C22.8285 7.77551 22.1418 7.10593 21.3013 6.695L21.995 4.26625V4.26625Z" fill="currentColor"/>
</symbol><symbol id="icon-cross" viewBox="0 0 20 20">
<path d="M10.0001 8.82167L14.1251 4.69667L15.3034 5.875L11.1784 10L15.3034 14.125L14.1251 15.3033L10.0001 11.1783L5.87511 15.3033L4.69678 14.125L8.82178 10L4.69678 5.875L5.87511 4.69667L10.0001 8.82167Z" fill="currentColor"/>
</symbol><symbol id="icon-look-through" viewBox="0 0 24 24">
<path d="M15 4H5V20H19V8H15V4ZM3 2.992C3 2.444 3.447 2 3.999 2H16L21 7V20.993C21.0009 21.1243 20.976 21.2545 20.9266 21.3762C20.8772 21.4979 20.8043 21.6087 20.7121 21.7022C20.6199 21.7957 20.5101 21.8701 20.3892 21.9212C20.2682 21.9723 20.1383 21.9991 20.007 22H3.993C3.73038 21.9982 3.47902 21.8931 3.29322 21.7075C3.10742 21.5219 3.00209 21.2706 3 21.008V2.992ZM13.529 14.446C12.6903 14.936 11.7021 15.1043 10.7485 14.9195C9.79488 14.7346 8.94106 14.2093 8.34623 13.4414C7.75139 12.6735 7.45614 11.7154 7.51553 10.7459C7.57492 9.77639 7.98489 8.86156 8.669 8.172C9.35745 7.48368 10.2733 7.07006 11.2449 7.00865C12.2165 6.94725 13.1771 7.24228 13.9467 7.83845C14.7163 8.43463 15.2421 9.29101 15.4255 10.2471C15.6089 11.2032 15.4374 12.1934 14.943 13.032L17.153 15.242L15.739 16.657L13.529 14.447V14.446ZM12.911 12.414C13.102 12.2295 13.2544 12.0088 13.3592 11.7648C13.464 11.5208 13.5192 11.2584 13.5215 10.9928C13.5238 10.7272 13.4732 10.4639 13.3726 10.2181C13.2721 9.9723 13.1236 9.749 12.9358 9.56121C12.748 9.37342 12.5247 9.22492 12.2789 9.12436C12.0331 9.02379 11.7698 8.97319 11.5042 8.9755C11.2386 8.97781 10.9762 9.03298 10.7322 9.1378C10.4882 9.24262 10.2675 9.39498 10.083 9.586C9.71868 9.9632 9.5171 10.4684 9.52165 10.9928C9.52621 11.5172 9.73655 12.0188 10.1074 12.3896C10.4782 12.7605 10.9798 12.9708 11.5042 12.9753C12.0286 12.9799 12.5338 12.7783 12.911 12.414Z" fill="currentColor"/>
</symbol><symbol id="icon-messages" viewBox="0 0 30 30">
<path d="M3.75 3.75H26.25C26.5815 3.75 26.8995 3.8817 27.1339 4.11612C27.3683 4.35054 27.5 4.66848 27.5 5V25C27.5 25.3315 27.3683 25.6495 27.1339 25.8839C26.8995 26.1183 26.5815 26.25 26.25 26.25H3.75C3.41848 26.25 3.10054 26.1183 2.86612 25.8839C2.6317 25.6495 2.5 25.3315 2.5 25V5C2.5 4.66848 2.6317 4.35054 2.86612 4.11612C3.10054 3.8817 3.41848 3.75 3.75 3.75V3.75ZM25 9.0475L15.09 17.9225L5 9.02V23.75H25V9.0475ZM5.63875 6.25L15.0763 14.5775L24.3775 6.25H5.63875Z" fill="currentColor"/>

</symbol><symbol id="icon-open-nav" viewBox="0 0 30 30">
<path d="M3.75 5H26.25V7.5H3.75V5ZM3.75 13.75H18.75V16.25H3.75V13.75ZM3.75 22.5H26.25V25H3.75V22.5Z" fill="currentColor"/>
</symbol><symbol id="icon-projects" viewBox="0 0 30 30">
<path d="M16.25 26.25V13.75H26.25V26.25H16.25ZM3.75 16.25V3.75H13.75V16.25H3.75ZM11.25 13.75V6.25H6.25V13.75H11.25ZM3.75 26.25V18.75H13.75V26.25H3.75ZM6.25 23.75H11.25V21.25H6.25V23.75ZM18.75 23.75H23.75V16.25H18.75V23.75ZM16.25 3.75H26.25V11.25H16.25V3.75ZM18.75 6.25V8.75H23.75V6.25H18.75Z" fill="currentColor"/>
</symbol><symbol id="icon-reset" viewBox="0 0 20 20">
<path fill-rule="evenodd" clip-rule="evenodd" d="M18.3333 10C18.3333 5.3975 14.6025 1.66666 9.99996 1.66666C7.27413 1.66666 4.85329 2.975 3.33329 5V2.91666H1.66663V7.91666H6.66663V6.25H4.48746C5.68663 4.48916 7.70829 3.33333 9.99996 3.33333C13.6816 3.33333 16.6666 6.31833 16.6666 10C16.6666 13.6817 13.6816 16.6667 9.99996 16.6667C6.31829 16.6667 3.33329 13.6817 3.33329 10H1.66663C1.66663 14.6025 5.39746 18.3333 9.99996 18.3333C14.6025 18.3333 18.3333 14.6025 18.3333 10Z" fill="currentColor"/>
</symbol><symbol id="icon-roll-back" viewBox="0 0 24 24">
<path d="M12 2C17.523 2 22 6.477 22 12C22 17.523 17.523 22 12 22C6.477 22 2 17.523 2 12H4C4 16.418 7.582 20 12 20C16.418 20 20 16.418 20 12C20 7.582 16.418 4 12 4C9.25 4 6.824 5.387 5.385 7.5H8V9.5H2V3.5H4V6C5.824 3.57 8.729 2 12 2ZM13 7V11.585L16.243 14.828L14.828 16.243L11 12.413V7H13Z" fill="currentColor"/>
</symbol><symbol id="icon-settings" viewBox="0 0 30 30">
<path d="M2.5 15.0001C2.5 13.9188 2.6375 12.8713 2.895 11.8701C3.58558 11.9064 4.27275 11.751 4.88055 11.4212C5.48835 11.0913 5.9931 10.5998 6.33901 10.001C6.68492 9.4022 6.85851 8.71941 6.84059 8.0281C6.82268 7.3368 6.61396 6.66391 6.2375 6.08383C7.74868 4.59704 9.61349 3.51945 11.6562 2.95258C11.97 3.56942 12.4483 4.08741 13.0382 4.44921C13.6282 4.81102 14.3067 5.00252 14.9987 5.00252C15.6908 5.00252 16.3693 4.81102 16.9593 4.44921C17.5492 4.08741 18.0275 3.56942 18.3413 2.95258C20.384 3.51945 22.2488 4.59704 23.76 6.08383C23.3831 6.66402 23.1741 7.33716 23.156 8.02878C23.138 8.7204 23.3116 9.40353 23.6577 10.0026C24.0038 10.6017 24.5089 11.0933 25.1171 11.4231C25.7253 11.7529 26.4129 11.908 27.1038 11.8713C27.3613 12.8713 27.4988 13.9188 27.4988 15.0001C27.4988 16.0813 27.3613 17.1288 27.1038 18.1301C26.4131 18.0935 25.7257 18.2487 25.1177 18.5785C24.5098 18.9082 24.0048 19.3997 23.6588 19.9986C23.3127 20.5974 23.139 21.2803 23.1569 21.9717C23.1747 22.6631 23.3835 23.3361 23.76 23.9163C22.2488 25.4031 20.384 26.4807 18.3413 27.0476C18.0275 26.4307 17.5492 25.9127 16.9593 25.5509C16.3693 25.1891 15.6908 24.9976 14.9987 24.9976C14.3067 24.9976 13.6282 25.1891 13.0382 25.5509C12.4483 25.9127 11.97 26.4307 11.6562 27.0476C9.61349 26.4807 7.74868 25.4031 6.2375 23.9163C6.61438 23.3361 6.82341 22.663 6.84146 21.9714C6.85951 21.2798 6.68587 20.5966 6.33976 19.9976C5.99366 19.3985 5.48857 18.9069 4.88038 18.5771C4.2722 18.2472 3.58463 18.0921 2.89375 18.1288C2.6375 17.1301 2.5 16.0826 2.5 15.0001ZM8.505 18.7501C9.2925 20.1138 9.5175 21.6826 9.21 23.1551C9.72 23.5176 10.2625 23.8313 10.8312 24.0926C11.9771 23.0661 13.4616 22.499 15 22.5001C16.575 22.5001 18.0475 23.0888 19.1688 24.0926C19.7375 23.8313 20.28 23.5176 20.79 23.1551C20.4743 21.65 20.7253 20.0814 21.495 18.7501C22.2633 17.418 23.4963 16.4165 24.9575 15.9376C25.0153 15.3139 25.0153 14.6862 24.9575 14.0626C23.4958 13.5839 22.2623 12.5823 21.4937 11.2501C20.7241 9.91874 20.473 8.35012 20.7888 6.84508C20.2789 6.48248 19.7361 6.1686 19.1675 5.90758C18.022 6.93374 16.5379 7.50084 15 7.50008C13.4616 7.50114 11.9771 6.93403 10.8312 5.90758C10.2627 6.16861 9.71986 6.48249 9.21 6.84508C9.52571 8.35012 9.27466 9.91874 8.505 11.2501C7.73671 12.5821 6.50373 13.5836 5.0425 14.0626C4.98469 14.6862 4.98469 15.3139 5.0425 15.9376C6.50419 16.4163 7.73766 17.4178 8.50625 18.7501H8.505ZM15 18.7501C14.0054 18.7501 13.0516 18.355 12.3483 17.6517C11.6451 16.9485 11.25 15.9946 11.25 15.0001C11.25 14.0055 11.6451 13.0517 12.3483 12.3484C13.0516 11.6452 14.0054 11.2501 15 11.2501C15.9946 11.2501 16.9484 11.6452 17.6517 12.3484C18.3549 13.0517 18.75 14.0055 18.75 15.0001C18.75 15.9946 18.3549 16.9485 17.6517 17.6517C16.9484 18.355 15.9946 18.7501 15 18.7501ZM15 16.2501C15.3315 16.2501 15.6495 16.1184 15.8839 15.884C16.1183 15.6495 16.25 15.3316 16.25 15.0001C16.25 14.6686 16.1183 14.3506 15.8839 14.1162C15.6495 13.8818 15.3315 13.7501 15 13.7501C14.6685 13.7501 14.3505 13.8818 14.1161 14.1162C13.8817 14.3506 13.75 14.6686 13.75 15.0001C13.75 15.3316 13.8817 15.6495 14.1161 15.884C14.3505 16.1184 14.6685 16.2501 15 16.2501V16.2501Z" fill="currentColor"/>

</symbol><symbol id="icon-sign-out" viewBox="0 0 30 30">
<path d="M25 18.7501H22.5V25.0001H7.5V5.00006H22.5V11.2501H25V3.75006C25 3.41854 24.8683 3.1006 24.6339 2.86618C24.3995 2.63176 24.0815 2.50006 23.75 2.50006H6.25C5.91848 2.50006 5.60054 2.63176 5.36612 2.86618C5.1317 3.1006 5 3.41854 5 3.75006V26.2501C5 26.5816 5.1317 26.8995 5.36612 27.1339C5.60054 27.3684 5.91848 27.5001 6.25 27.5001H23.75C24.0815 27.5001 24.3995 27.3684 24.6339 27.1339C24.8683 26.8995 25 26.5816 25 26.2501V18.7501ZM17.5 13.7501V10.0001L11.25 15.0001L17.5 20.0001V16.2501H27.5V13.7501H17.5Z" fill="currentColor"/>

</symbol></svg>